<?xml version="1.0" encoding="UTF-8"?>
<svg width="30px" height="31px" viewBox="0 0 30 31" version="1.1" xmlns="http://www.w3.org/2000/svg" xmlns:xlink="http://www.w3.org/1999/xlink">
    <!-- Generator: Sketch 60 (88103) - https://sketch.com -->
    <title>卓钢链logo字</title>
    <desc>Created with Sketch.</desc>
    <defs>
        <linearGradient x1="50.0214156%" y1="100%" x2="50.0214152%" y2="-7.01205321%" id="linearGradient-1">
            <stop stop-color="#A48359" offset="0%"></stop>
            <stop stop-color="#B99E5C" offset="19.7054476%"></stop>
            <stop stop-color="#EBC88D" offset="38%"></stop>
            <stop stop-color="#D2BD8B" offset="58%"></stop>
            <stop stop-color="#8D714D" offset="100%"></stop>
        </linearGradient>
        <linearGradient x1="50.0214156%" y1="100%" x2="50.0214152%" y2="-7.01205321%" id="linearGradient-2">
            <stop stop-color="#A48359" offset="0%"></stop>
            <stop stop-color="#B99E5C" offset="19.7054476%"></stop>
            <stop stop-color="#EBC88D" offset="38%"></stop>
            <stop stop-color="#D2BD8B" offset="58%"></stop>
            <stop stop-color="#8D714D" offset="100%"></stop>
        </linearGradient>
    </defs>
    <g id="05主功能界面" stroke="none" stroke-width="1" fill="none" fill-rule="evenodd">
        <g id="画板" transform="translate(-104.000000, -131.000000)" fill="url(#linearGradient-2)" fill-rule="nonzero">
            <g id="卓钢链logo字" transform="translate(104.000000, 131.000000)">
                <g id="分组-22-copy" transform="translate(6.000000, 2.000000)">
                    <path d="M3.08894199,18.8084806 L3.2155233,18.8504082 L3.3164324,18.872449 C3.80152051,19.0916002 4.32005435,19.2234502 4.84866705,19.2627694 L5.11370512,19.2746939 L9.29461421,19.2746939 C9.8569405,19.2746939 10.3198941,19.7045005 10.379122,20.2566552 L10.3855233,20.3767347 L10.3855233,20.4153061 L10.3991597,20.4015306 L10.4155233,25.9447959 C10.411586,26.1529199 10.3262853,26.3510143 10.1782506,26.4958163 C9.98122724,26.6891921 9.71657448,26.7961334 9.44188694,26.7933673 C8.97435801,26.8242069 8.56470964,26.4971372 8.47716144,26.043386 L8.46279603,25.9365306 L8.4464324,21.4512245 L4.44279603,21.4512245 C3.99501659,21.4062487 3.55340569,21.3142692 3.12507718,21.1769627 L2.8064324,21.0655102 L2.78734149,21.0655102 L2.66734149,21.0159184 C2.15037477,20.8672396 1.78013943,20.4085234 1.74004195,19.8670408 C1.73827873,19.5053346 1.91450561,19.1663676 2.2103075,18.9625512 C2.46913416,18.7842118 2.78991,18.7297427 3.08894199,18.8084806 Z M16.4318869,18.7787755 C17.0291597,18.7787755 17.5146142,19.1589796 17.5119097,19.789898 C17.4751964,20.2885368 17.1746903,20.7240765 16.7330223,20.9340587 L16.6091597,20.9856122 L16.472796,21.0462245 L16.4509778,21.0462245 C16.0311643,21.2175282 15.5951745,21.3442499 15.1500553,21.4245388 L14.8146142,21.4760204 L11.5037051,21.4760204 L11.5037051,20.0984694 C11.5183324,19.8311103 11.4307328,19.5701183 11.2620048,19.3679047 L11.1709778,19.2719388 L14.1437051,19.2719388 C14.6542585,19.2702419 15.1599965,19.1791132 15.6385912,19.0032414 L15.8755233,18.9082653 L15.9055233,18.9082653 L16.0391597,18.8559184 C16.1642419,18.8059667 16.2973897,18.7798127 16.4318869,18.7787755 Z M6.0199438,6.21575195 L6.30825058,6.22928571 L14.2882506,6.22928571 L14.4082506,6.25132653 C16.4209778,6.28989796 17.9564324,7.67846939 17.9564324,9.77510204 C17.9564324,11.8717347 16.2764324,13.392551 14.1873415,13.3181633 L14.1873415,13.3181633 L2.37006876,13.3181633 C2.87188694,14.9354082 4.4455233,15.874898 6.31097785,15.9052041 L6.31097785,15.9052041 L14.1355233,15.9052041 L14.135,15.913 L14.8091597,15.9134694 L14.809,16.357 L15.6464324,16.3570408 L15.6464324,17.172551 L16.3909778,17.172551 L16.3909778,17.9136735 L15.6464324,17.9136735 L15.6464324,17.2276531 L14.817,17.227 L14.8173415,18.1671429 L14.135,18.167 L14.1355233,18.1754082 L13.9118869,18.1754082 L13.9118869,17.307551 L13.0500688,17.307551 L13.0500688,18.1754082 L6.12279603,18.1754082 L6.12279603,18.1506122 C2.89915967,18.3847959 -6.7575991e-05,15.6737755 -6.7575991e-05,12.1940816 C-0.00784739323,10.5375569 0.668086596,8.95266364 1.86527729,7.82064202 C3.06246799,6.6886204 4.67255962,6.11192788 6.30825058,6.22928571 L6.0199438,6.21575195 Z M14.135,17.191 L14.784,17.191 L14.784,16.436 L14.135,16.436 L14.135,17.191 Z M17.1764324,16.3818367 L17.1764324,17.0623469 L16.502796,17.0623469 L16.502796,16.3818367 L17.1764324,16.3818367 Z M16.3991597,15.5966327 L16.3991597,16.3570408 L15.6464324,16.3570408 L15.6464324,15.5966327 L16.3991597,15.5966327 Z M17.6837051,15.1117347 L17.6837051,15.7288776 L17.072796,15.7288776 L17.072796,15.1117347 L17.6837051,15.1117347 Z M14.522796,8.46642857 L6.31097785,8.46642857 C4.42097785,8.49397959 2.83097785,9.4527551 2.34825058,11.1058163 L2.34825058,11.1058163 L14.2118869,11.1058163 C14.2704444,11.1161123 14.3297259,11.1216403 14.3891597,11.1223469 C14.8039292,11.1185573 15.1915937,10.9135205 15.4309778,10.5713265 L15.4309778,10.5713265 C15.617373,10.3461 15.7137966,10.0607647 15.7009778,9.76959184 C15.713043,9.43369297 15.581971,9.10868781 15.3409778,8.87693878 C15.1323096,8.63672268 14.8383538,8.48923482 14.522796,8.46642857 L14.522796,8.46642857 Z M6.54006876,8.8817842e-14 C7.079902,8.8817842e-14 7.52433743,0.412614375 7.58119623,0.942682875 L7.58734149,1.05795918 L7.58734149,2.76887755 L13.5464324,2.76887755 L13.5750688,2.76798332 L13.6037051,2.76887755 C14.1820979,2.76887755 14.6509778,3.24254201 14.6509778,3.82683673 C14.6509778,4.37217848 14.2425313,4.82114897 13.717817,4.87858796 L13.6037051,4.88479592 L6.6164324,4.88479592 C6.58915967,4.88755102 6.56461421,4.90132653 6.53734149,4.90132653 L6.49779603,4.89306122 L6.45825058,4.88479592 L6.35461421,4.88479592 L6.35461421,4.8655102 C5.90028047,4.78714145 5.5566325,4.41696004 5.50068634,3.96378067 L5.49279603,3.84887755 L5.49279603,1.05795918 C5.49279603,0.473664461 5.961676,8.8817842e-14 6.54006876,8.8817842e-14 Z" id="合并形状"></path>
                </g>
            </g>
        </g>
    </g>
</svg>